<svg width="428" height="458" viewBox="0 0 428 458" fill="none" xmlns="http://www.w3.org/2000/svg">
<rect width="428" height="458" fill="#FE6E71"/>
<path d="M0 365.594C1.88592 364.391 8.62808 362.707 20.5094 365.594C32.3907 368.481 39.6043 374.976 41.7259 377.863C47.3837 387.245 62.8011 406.153 79.2086 406.73C95.6161 407.308 117.163 403.122 125.885 400.957C141.444 399.754 170.581 403.555 162.66 428.381C155.365 451.246 158.708 457.501 161.86 457.971H162.66C162.4 458.009 162.131 458.011 161.86 457.971H0V365.594Z" fill="#F396AC"/>
<path d="M297.139 31.1004C302.539 13.4077 300.514 2.99485 298.826 0H427.633C427.633 27.6448 428.758 88.2164 427.07 88.4633C400.634 92.3302 393.322 74.6409 381.51 56.6718C369.698 38.7027 322.45 57.3629 319.075 56.6718C315.701 55.9807 290.389 53.2162 297.139 31.1004Z" fill="#F396AC"/>
<circle cx="14.2667" cy="14.2667" r="2.37778" fill="#FFD4D6"/>
<circle cx="14.2667" cy="22.2917" r="2.37778" fill="#FFD4D6"/>
<circle cx="14.2667" cy="30.3167" r="2.37778" fill="#FFD4D6"/>
<circle cx="14.2667" cy="38.3417" r="2.37778" fill="#FFD4D6"/>
<circle cx="14.2667" cy="46.3667" r="2.37778" fill="#FFD4D6"/>
<circle cx="14.2667" cy="14.2667" r="2.37778" fill="#FFD4D6"/>
<circle cx="14.2667" cy="22.2917" r="2.37778" fill="#FFD4D6"/>
<circle cx="14.2667" cy="30.3167" r="2.37778" fill="#FFD4D6"/>
<circle cx="14.2667" cy="38.3417" r="2.37778" fill="#FFD4D6"/>
<circle cx="14.2667" cy="46.3667" r="2.37778" fill="#FFD4D6"/>
<circle cx="22.2917" cy="14.2667" r="2.37778" fill="#FFD4D6"/>
<circle cx="22.2917" cy="22.2917" r="2.37778" fill="#FFD4D6"/>
<circle cx="22.2917" cy="30.3167" r="2.37778" fill="#FFD4D6"/>
<circle cx="22.2917" cy="38.3417" r="2.37778" fill="#FFD4D6"/>
<circle cx="22.2917" cy="46.3667" r="2.37778" fill="#FFD4D6"/>
<circle cx="30.3167" cy="14.2667" r="2.37778" fill="#FFD4D6"/>
<circle cx="30.3167" cy="22.2917" r="2.37778" fill="#FFD4D6"/>
<circle cx="30.3167" cy="30.3167" r="2.37778" fill="#FFD4D6"/>
<circle cx="30.3167" cy="38.3417" r="2.37778" fill="#FFD4D6"/>
<circle cx="30.3167" cy="46.3667" r="2.37778" fill="#FFD4D6"/>
<circle cx="38.3416" cy="14.2667" r="2.37778" fill="#FFD4D6"/>
<circle cx="38.3416" cy="22.2917" r="2.37778" fill="#FFD4D6"/>
<circle cx="38.3416" cy="30.3167" r="2.37778" fill="#FFD4D6"/>
<circle cx="38.3416" cy="38.3417" r="2.37778" fill="#FFD4D6"/>
<circle cx="38.3416" cy="46.3667" r="2.37778" fill="#FFD4D6"/>
<circle cx="46.3666" cy="14.2667" r="2.37778" fill="#FFD4D6"/>
<circle cx="46.3666" cy="22.2917" r="2.37778" fill="#FFD4D6"/>
<circle cx="46.3666" cy="30.3167" r="2.37778" fill="#FFD4D6"/>
<circle cx="46.3666" cy="38.3417" r="2.37778" fill="#FFD4D6"/>
<circle cx="46.3666" cy="46.3667" r="2.37778" fill="#FFD4D6"/>
<circle cx="54.3917" cy="14.2667" r="2.37778" fill="#FFD4D6"/>
<circle cx="54.3917" cy="22.2917" r="2.37778" fill="#FFD4D6"/>
<circle cx="54.3917" cy="30.3167" r="2.37778" fill="#FFD4D6"/>
<circle cx="54.3917" cy="38.3417" r="2.37778" fill="#FFD4D6"/>
<circle cx="54.3917" cy="46.3667" r="2.37778" fill="#FFD4D6"/>
<circle cx="62.4167" cy="14.2667" r="2.37778" fill="#FFD4D6"/>
<circle cx="62.4167" cy="22.2917" r="2.37778" fill="#FFD4D6"/>
<circle cx="62.4167" cy="30.3167" r="2.37778" fill="#FFD4D6"/>
<circle cx="62.4167" cy="38.3417" r="2.37778" fill="#FFD4D6"/>
<circle cx="62.4167" cy="46.3667" r="2.37778" fill="#FFD4D6"/>
<circle cx="70.4417" cy="14.2667" r="2.37778" fill="#FFD4D6"/>
<circle cx="70.4417" cy="22.2917" r="2.37778" fill="#FFD4D6"/>
<circle cx="70.4417" cy="30.3167" r="2.37778" fill="#FFD4D6"/>
<circle cx="70.4417" cy="38.3417" r="2.37778" fill="#FFD4D6"/>
<circle cx="70.4417" cy="46.3667" r="2.37778" fill="#FFD4D6"/>
<circle cx="78.4667" cy="14.2667" r="2.37778" fill="#FFD4D6"/>
<circle cx="78.4667" cy="22.2917" r="2.37778" fill="#FFD4D6"/>
<circle cx="78.4667" cy="30.3167" r="2.37778" fill="#FFD4D6"/>
<circle cx="78.4667" cy="38.3417" r="2.37778" fill="#FFD4D6"/>
<circle cx="78.4667" cy="46.3667" r="2.37778" fill="#FFD4D6"/>
<circle cx="86.4917" cy="14.2667" r="2.37778" fill="#FFD4D6"/>
<circle cx="86.4917" cy="22.2917" r="2.37778" fill="#FFD4D6"/>
<circle cx="86.4917" cy="30.3167" r="2.37778" fill="#FFD4D6"/>
<circle cx="86.4917" cy="38.3417" r="2.37778" fill="#FFD4D6"/>
<circle cx="86.4917" cy="46.3667" r="2.37778" fill="#FFD4D6"/>
<circle cx="351.01" cy="403.071" r="2.07097" fill="#FFD4D6"/>
<circle cx="351.01" cy="410.06" r="2.07097" fill="#FFD4D6"/>
<circle cx="351.01" cy="417.05" r="2.07097" fill="#FFD4D6"/>
<circle cx="351.01" cy="424.04" r="2.07097" fill="#FFD4D6"/>
<circle cx="351.01" cy="431.029" r="2.07097" fill="#FFD4D6"/>
<circle cx="351.01" cy="403.071" r="2.07097" fill="#FFD4D6"/>
<circle cx="351.01" cy="410.06" r="2.07097" fill="#FFD4D6"/>
<circle cx="351.01" cy="417.05" r="2.07097" fill="#FFD4D6"/>
<circle cx="351.01" cy="424.04" r="2.07097" fill="#FFD4D6"/>
<circle cx="351.01" cy="431.029" r="2.07097" fill="#FFD4D6"/>
<circle cx="357.999" cy="403.071" r="2.07097" fill="#FFD4D6"/>
<circle cx="357.999" cy="410.06" r="2.07097" fill="#FFD4D6"/>
<circle cx="357.999" cy="417.05" r="2.07097" fill="#FFD4D6"/>
<circle cx="357.999" cy="424.04" r="2.07097" fill="#FFD4D6"/>
<circle cx="357.999" cy="431.029" r="2.07097" fill="#FFD4D6"/>
<circle cx="364.989" cy="403.071" r="2.07097" fill="#FFD4D6"/>
<circle cx="364.989" cy="410.06" r="2.07097" fill="#FFD4D6"/>
<circle cx="364.989" cy="417.05" r="2.07097" fill="#FFD4D6"/>
<circle cx="364.989" cy="424.04" r="2.07097" fill="#FFD4D6"/>
<circle cx="364.989" cy="431.029" r="2.07097" fill="#FFD4D6"/>
<circle cx="371.978" cy="403.071" r="2.07097" fill="#FFD4D6"/>
<circle cx="371.978" cy="410.06" r="2.07097" fill="#FFD4D6"/>
<circle cx="371.978" cy="417.05" r="2.07097" fill="#FFD4D6"/>
<circle cx="371.978" cy="424.04" r="2.07097" fill="#FFD4D6"/>
<circle cx="371.978" cy="431.029" r="2.07097" fill="#FFD4D6"/>
<circle cx="378.968" cy="403.071" r="2.07097" fill="#FFD4D6"/>
<circle cx="378.968" cy="410.06" r="2.07097" fill="#FFD4D6"/>
<circle cx="378.968" cy="417.05" r="2.07097" fill="#FFD4D6"/>
<circle cx="378.968" cy="424.04" r="2.07097" fill="#FFD4D6"/>
<circle cx="378.968" cy="431.029" r="2.07097" fill="#FFD4D6"/>
<circle cx="385.957" cy="403.071" r="2.07097" fill="#FFD4D6"/>
<circle cx="385.957" cy="410.06" r="2.07097" fill="#FFD4D6"/>
<circle cx="385.957" cy="417.05" r="2.07097" fill="#FFD4D6"/>
<circle cx="385.957" cy="424.04" r="2.07097" fill="#FFD4D6"/>
<circle cx="385.957" cy="431.029" r="2.07097" fill="#FFD4D6"/>
<circle cx="392.947" cy="403.071" r="2.07097" fill="#FFD4D6"/>
<circle cx="392.947" cy="410.06" r="2.07097" fill="#FFD4D6"/>
<circle cx="392.947" cy="417.05" r="2.07097" fill="#FFD4D6"/>
<circle cx="392.947" cy="424.04" r="2.07097" fill="#FFD4D6"/>
<circle cx="392.947" cy="431.029" r="2.07097" fill="#FFD4D6"/>
<circle cx="399.937" cy="403.071" r="2.07097" fill="#FFD4D6"/>
<circle cx="399.937" cy="410.06" r="2.07097" fill="#FFD4D6"/>
<circle cx="399.937" cy="417.05" r="2.07097" fill="#FFD4D6"/>
<circle cx="399.937" cy="424.04" r="2.07097" fill="#FFD4D6"/>
<circle cx="399.937" cy="431.029" r="2.07097" fill="#FFD4D6"/>
<circle cx="406.926" cy="403.071" r="2.07097" fill="#FFD4D6"/>
<circle cx="406.926" cy="410.06" r="2.07097" fill="#FFD4D6"/>
<circle cx="406.926" cy="417.05" r="2.07097" fill="#FFD4D6"/>
<circle cx="406.926" cy="424.04" r="2.07097" fill="#FFD4D6"/>
<circle cx="406.926" cy="431.029" r="2.07097" fill="#FFD4D6"/>
<circle cx="413.915" cy="403.071" r="2.07097" fill="#FFD4D6"/>
<circle cx="413.915" cy="410.06" r="2.07097" fill="#FFD4D6"/>
<circle cx="413.915" cy="417.05" r="2.07097" fill="#FFD4D6"/>
<circle cx="413.915" cy="424.04" r="2.07097" fill="#FFD4D6"/>
<circle cx="413.915" cy="431.029" r="2.07097" fill="#FFD4D6"/>
<rect x="74.9" y="101" width="2.37778" height="9.51111" fill="#FBFDFF"/>
<rect x="71.3334" y="106.944" width="2.37778" height="9.51111" transform="rotate(-90 71.3334 106.944)" fill="#FBFDFF"/>
<rect x="118.403" y="301" width="2.93507" height="11.7403" fill="#FBFDFF"/>
<rect x="114" y="308.338" width="2.93507" height="11.7403" transform="rotate(-90 114 308.338)" fill="#FBFDFF"/>
<rect x="379.786" y="167.039" width="1.85764" height="7.43056" fill="#FBFDFF"/>
<rect x="377" y="171.683" width="1.85764" height="7.43056" transform="rotate(-90 377 171.683)" fill="#FBFDFF"/>
<rect x="165.85" y="47.8528" width="1.18889" height="4.75556" fill="#FBFDFF"/>
<rect x="164.067" y="50.825" width="1.18889" height="4.75556" transform="rotate(-90 164.067 50.825)" fill="#FBFDFF"/>
<rect x="276.565" y="53.2028" width="1.48611" height="5.94444" fill="#FBFDFF"/>
<rect x="274.336" y="56.918" width="1.48611" height="5.94444" transform="rotate(-90 274.336 56.918)" fill="#FBFDFF"/>
<rect x="295.229" y="358" width="1.48611" height="5.94444" fill="#FBFDFF"/>
<rect x="293" y="361.715" width="1.48611" height="5.94444" transform="rotate(-90 293 361.715)" fill="#FBFDFF"/>
</svg>
