<svg width="1440" height="820" viewBox="0 0 1440 820" fill="none" xmlns="http://www.w3.org/2000/svg">
<rect width="1440" height="820" fill="#B70B0D"/>
<path d="M0 572.273C5.26677 569.049 24.0955 564.534 57.2762 572.273C90.4568 580.012 110.602 597.425 116.527 605.164C132.328 630.316 175.384 681.006 221.204 682.554C267.025 684.102 327.198 672.88 351.557 667.076C395.008 663.851 476.38 674.041 454.259 740.596C433.886 801.894 443.222 818.662 452.025 819.921H454.259C453.531 820.023 452.78 820.029 452.025 819.921H0V572.273Z" fill="#F39A05"/>
<path d="M1071.21 71.2862C1086.43 30.7323 1080.72 6.8646 1075.97 0H1438.96C1438.96 63.3655 1442.14 202.204 1437.38 202.77C1362.88 211.633 1342.27 171.087 1308.98 129.899C1275.69 88.7117 1142.54 131.483 1133.03 129.899C1123.52 128.315 1052.19 121.979 1071.21 71.2862Z" fill="#F39A05"/>
<circle cx="48" cy="48" r="8" fill="white"/>
<circle cx="48" cy="75" r="8" fill="white"/>
<circle cx="48" cy="102" r="8" fill="white"/>
<circle cx="48" cy="129" r="8" fill="white"/>
<circle cx="48" cy="156" r="8" fill="white"/>
<circle cx="48" cy="48" r="8" fill="white"/>
<circle cx="48" cy="75" r="8" fill="white"/>
<circle cx="48" cy="102" r="8" fill="white"/>
<circle cx="48" cy="129" r="8" fill="white"/>
<circle cx="48" cy="156" r="8" fill="white"/>
<circle cx="75" cy="48" r="8" fill="white"/>
<circle cx="75" cy="75" r="8" fill="white"/>
<circle cx="75" cy="102" r="8" fill="white"/>
<circle cx="75" cy="129" r="8" fill="white"/>
<circle cx="75" cy="156" r="8" fill="white"/>
<circle cx="102" cy="48" r="8" fill="white"/>
<circle cx="102" cy="75" r="8" fill="white"/>
<circle cx="102" cy="102" r="8" fill="white"/>
<circle cx="102" cy="129" r="8" fill="white"/>
<circle cx="102" cy="156" r="8" fill="white"/>
<circle cx="129" cy="48" r="8" fill="white"/>
<circle cx="129" cy="75" r="8" fill="white"/>
<circle cx="129" cy="102" r="8" fill="white"/>
<circle cx="129" cy="129" r="8" fill="white"/>
<circle cx="129" cy="156" r="8" fill="white"/>
<circle cx="156" cy="48" r="8" fill="white"/>
<circle cx="156" cy="75" r="8" fill="white"/>
<circle cx="156" cy="102" r="8" fill="white"/>
<circle cx="156" cy="129" r="8" fill="white"/>
<circle cx="156" cy="156" r="8" fill="white"/>
<circle cx="183" cy="48" r="8" fill="white"/>
<circle cx="183" cy="75" r="8" fill="white"/>
<circle cx="183" cy="102" r="8" fill="white"/>
<circle cx="183" cy="129" r="8" fill="white"/>
<circle cx="183" cy="156" r="8" fill="white"/>
<circle cx="210" cy="48" r="8" fill="white"/>
<circle cx="210" cy="75" r="8" fill="white"/>
<circle cx="210" cy="102" r="8" fill="white"/>
<circle cx="210" cy="129" r="8" fill="white"/>
<circle cx="210" cy="156" r="8" fill="white"/>
<circle cx="237" cy="48" r="8" fill="white"/>
<circle cx="237" cy="75" r="8" fill="white"/>
<circle cx="237" cy="102" r="8" fill="white"/>
<circle cx="237" cy="129" r="8" fill="white"/>
<circle cx="237" cy="156" r="8" fill="white"/>
<circle cx="264" cy="48" r="8" fill="white"/>
<circle cx="264" cy="75" r="8" fill="white"/>
<circle cx="264" cy="102" r="8" fill="white"/>
<circle cx="264" cy="129" r="8" fill="white"/>
<circle cx="264" cy="156" r="8" fill="white"/>
<circle cx="291" cy="48" r="8" fill="white"/>
<circle cx="291" cy="75" r="8" fill="white"/>
<circle cx="291" cy="102" r="8" fill="white"/>
<circle cx="291" cy="129" r="8" fill="white"/>
<circle cx="291" cy="156" r="8" fill="white"/>
<circle cx="1180.97" cy="678.968" r="6.96774" fill="white"/>
<circle cx="1180.97" cy="702.484" r="6.96774" fill="white"/>
<circle cx="1180.97" cy="726" r="6.96774" fill="white"/>
<circle cx="1180.97" cy="749.516" r="6.96774" fill="white"/>
<circle cx="1180.97" cy="773.032" r="6.96774" fill="white"/>
<circle cx="1180.97" cy="678.968" r="6.96774" fill="white"/>
<circle cx="1180.97" cy="702.484" r="6.96774" fill="white"/>
<circle cx="1180.97" cy="726" r="6.96774" fill="white"/>
<circle cx="1180.97" cy="749.516" r="6.96774" fill="white"/>
<circle cx="1180.97" cy="773.032" r="6.96774" fill="white"/>
<circle cx="1204.48" cy="678.968" r="6.96774" fill="white"/>
<circle cx="1204.48" cy="702.484" r="6.96774" fill="white"/>
<circle cx="1204.48" cy="726" r="6.96774" fill="white"/>
<circle cx="1204.48" cy="749.516" r="6.96774" fill="white"/>
<circle cx="1204.48" cy="773.032" r="6.96774" fill="white"/>
<circle cx="1228" cy="678.968" r="6.96774" fill="white"/>
<circle cx="1228" cy="702.484" r="6.96774" fill="white"/>
<circle cx="1228" cy="726" r="6.96774" fill="white"/>
<circle cx="1228" cy="749.516" r="6.96774" fill="white"/>
<circle cx="1228" cy="773.032" r="6.96774" fill="white"/>
<circle cx="1251.52" cy="678.968" r="6.96774" fill="white"/>
<circle cx="1251.52" cy="702.484" r="6.96774" fill="white"/>
<circle cx="1251.52" cy="726" r="6.96774" fill="white"/>
<circle cx="1251.52" cy="749.516" r="6.96774" fill="white"/>
<circle cx="1251.52" cy="773.032" r="6.96774" fill="white"/>
<circle cx="1275.03" cy="678.968" r="6.96774" fill="white"/>
<circle cx="1275.03" cy="702.484" r="6.96774" fill="white"/>
<circle cx="1275.03" cy="726" r="6.96774" fill="white"/>
<circle cx="1275.03" cy="749.516" r="6.96774" fill="white"/>
<circle cx="1275.03" cy="773.032" r="6.96774" fill="white"/>
<circle cx="1298.55" cy="678.968" r="6.96774" fill="white"/>
<circle cx="1298.55" cy="702.484" r="6.96774" fill="white"/>
<circle cx="1298.55" cy="726" r="6.96774" fill="white"/>
<circle cx="1298.55" cy="749.516" r="6.96774" fill="white"/>
<circle cx="1298.55" cy="773.032" r="6.96774" fill="white"/>
<circle cx="1322.06" cy="678.968" r="6.96774" fill="white"/>
<circle cx="1322.06" cy="702.484" r="6.96774" fill="white"/>
<circle cx="1322.06" cy="726" r="6.96774" fill="white"/>
<circle cx="1322.06" cy="749.516" r="6.96774" fill="white"/>
<circle cx="1322.06" cy="773.032" r="6.96774" fill="white"/>
<circle cx="1345.58" cy="678.968" r="6.96774" fill="white"/>
<circle cx="1345.58" cy="702.484" r="6.96774" fill="white"/>
<circle cx="1345.58" cy="726" r="6.96774" fill="white"/>
<circle cx="1345.58" cy="749.516" r="6.96774" fill="white"/>
<circle cx="1345.58" cy="773.032" r="6.96774" fill="white"/>
<circle cx="1369.1" cy="678.968" r="6.96774" fill="white"/>
<circle cx="1369.1" cy="702.484" r="6.96774" fill="white"/>
<circle cx="1369.1" cy="726" r="6.96774" fill="white"/>
<circle cx="1369.1" cy="749.516" r="6.96774" fill="white"/>
<circle cx="1369.1" cy="773.032" r="6.96774" fill="white"/>
<circle cx="1392.61" cy="678.968" r="6.96774" fill="white"/>
<circle cx="1392.61" cy="702.484" r="6.96774" fill="white"/>
<circle cx="1392.61" cy="726" r="6.96774" fill="white"/>
<circle cx="1392.61" cy="749.516" r="6.96774" fill="white"/>
<circle cx="1392.61" cy="773.032" r="6.96774" fill="white"/>
<rect x="252" y="255" width="8" height="32" fill="#FBFDFF"/>
<rect x="240" y="275" width="8" height="32" transform="rotate(-90 240 275)" fill="#FBFDFF"/>
<rect x="469.312" y="480" width="9.875" height="39.5" fill="#FBFDFF"/>
<rect x="454.5" y="504.688" width="9.875" height="39.5" transform="rotate(-90 454.5 504.688)" fill="#FBFDFF"/>
<rect x="1224.38" y="562" width="6.25" height="25" fill="#FBFDFF"/>
<rect x="1215" y="577.625" width="6.25" height="25" transform="rotate(-90 1215 577.625)" fill="#FBFDFF"/>
<rect x="558" y="161" width="4" height="16" fill="#FBFDFF"/>
<rect x="552" y="171" width="4" height="16" transform="rotate(-90 552 171)" fill="#FBFDFF"/>
<rect x="930.5" y="179" width="5" height="20" fill="#FBFDFF"/>
<rect x="923" y="191.5" width="5" height="20" transform="rotate(-90 923 191.5)" fill="#FBFDFF"/>
</svg>
